<svg viewBox="0 0 24 24" fill="none" xmlns="http://www.w3.org/2000/svg">
<path fill-rule="evenodd" clip-rule="evenodd" d="M4.29883 7.0032H5.47801L8.50685 11.8504L11.5319 7.00922L12.7111 7.00922L9.09644 12.7939L12.6384 18.4622L12.9844 18.9921H11.7903L8.50685 13.7374L5.2193 18.9986L4.01172 18.9988L4.37125 18.4687L7.91726 12.7939L4.29883 7.0032ZM15.637 14.502C16.021 14.16 16.514 14 17 14C17.486 14 17.979 14.16 18.363 14.502C18.748 14.844 19 15.375 19 16C19 16.581 18.848 17.062 18.588 17.426C18.328 17.79 17.987 18.026 17.656 18.227C17.4187 18.3706 17.2169 18.5404 17.0182 18.7075C16.8987 18.808 16.7803 18.9076 16.656 19H19V20H15V19.145L15.084 19.018C15.5955 18.247 16.2807 17.8599 16.827 17.5512C16.9376 17.4888 17.0424 17.4296 17.139 17.371C17.425 17.197 17.636 17.036 17.773 16.844C17.91 16.652 18 16.419 18 16C18 15.625 17.877 15.406 17.699 15.248C17.521 15.09 17.264 15 17 15C16.736 15 16.479 15.09 16.301 15.248C16.123 15.406 16 15.625 16 16H15C15 15.375 15.252 14.844 15.637 14.502Z" fill="white"/>
</svg>
