<?xml version="1.0" encoding="utf-8"?>
<!-- Generator: Adobe Illustrator 25.1.0, SVG Export Plug-In . SVG Version: 6.00 Build 0)  -->
<svg version="1.1" id="Layer_2" xmlns="http://www.w3.org/2000/svg" xmlns:xlink="http://www.w3.org/1999/xlink" x="0px" y="0px"
	 viewBox="0 0 355 312" style="enable-background:new 0 0 355 312;" xml:space="preserve">
<style type="text/css">
	.st0{opacity:0.2;}
	.st1{fill:#FFFFFF;}
	.st2{opacity:0.1;}
	.st3{opacity:0.75;}
	.st4{opacity:0.5;}
</style>
<g class="st0" opacity="0.2">
	<path fill="#FFFFFF" d="M71.1,155l72.5-127c0.8-1.3-0.2-3-1.7-3H96.4c-0.7,0-1.4,0.4-1.7,1L21.1,155c-0.2,0.3-0.3,0.6-0.3,1h50
		C70.8,155.7,70.9,155.3,71.1,155z"/>
</g>
<g>
	<path fill="#FFFFFF" d="M261.7,0H93.3c-3.6,0-6.9,1.9-8.7,5L38.4,86L1.3,151c-0.9,1.5-1.3,3.2-1.3,5h20.8c0-0.3,0.1-0.7,0.3-1L94.6,26
		c0.4-0.6,1-1,1.7-1h45.4c1.5,0,2.5,1.7,1.7,3L71.1,155c-0.2,0.3-0.3,0.6-0.3,1h107.7L266.7,1.4C265.2,0.5,263.5,0,261.7,0z"/>
</g>
<g class="st2" opacity="0.1">
	<path class="st1" d="M94.6,286c0.4,0.6,1,1,1.7,1h45.4c1.5,0,2.5-1.7,1.7-3L71.1,157c-0.2-0.3-0.3-0.6-0.3-1h-50
		c0,0.3,0.1,0.7,0.3,1L94.6,286z"/>
</g>
<g class="st3" opacity="0.75">
	<path fill="#FFFFFF" d="M178.5,156H70.8c0,0.3,0.1,0.7,0.3,1l72.5,127c0.8,1.3-0.2,3-1.7,3H96.4c-0.7,0-1.4-0.4-1.7-1L21.1,157
		c-0.2-0.3-0.3-0.6-0.3-1H0c0,1.7,0.4,3.4,1.3,5l37.1,65l46.2,81c1.8,3.1,5.1,5,8.7,5h168.4c1.8,0,3.5-0.5,5-1.4L178.5,156z"/>
</g>
<g class="st4" opacity="0.5">
	<path fill="#FFFFFF" d="M353.7,151l-37.1-65L270.4,5c-0.9-1.6-2.2-2.8-3.7-3.7L178.5,156l88.2,154.6c1.5-0.9,2.8-2.1,3.7-3.7l46.2-81
		l37.1-65C355.4,157.9,355.4,154.1,353.7,151z M333.9,157l-64.7,113.4c-0.8,1.3-2.7,1.3-3.5,0l-22.7-39.8c-0.4-0.6-0.4-1.4,0-2
		l40.9-71.6c0.4-0.6,0.4-1.4,0-2l-40.9-71.6c-0.4-0.6-0.4-1.4,0-2l22.7-39.8c0.8-1.3,2.7-1.3,3.5,0L333.9,155
		C334.3,155.6,334.3,156.4,333.9,157z"/>
</g>
</svg>
