<svg viewBox="0 0 24 24" fill="none" xmlns="http://www.w3.org/2000/svg">
<path d="M8 5V19H14.09L14.18 18.98C15.155 18.802 15.924 18.18 16.375 17.436C16.826 16.693 17.012 15.834 17.002 14.984C16.992 14.135 16.786 13.284 16.336 12.551C16.084 12.141 15.723 11.792 15.303 11.51C15.323 11.48 15.353 11.469 15.363 11.439C15.817 10.7004 16.013 9.8425 16.012 8.9922C16.012 8.142 15.811 7.2867 15.357 6.5488C14.906 5.8158 14.148 5.1978 13.184 5.0176L13.092 5H8ZM10 7H12.84C13.196 7.075 13.444 7.2558 13.656 7.6016C13.875 7.9574 14.013 8.4772 14.014 9.002C14.014 9.5267 13.877 10.0441 13.66 10.3984C13.456 10.7323 13.223 10.9197 12.879 11H10V7ZM10 13H13.863C14.181 13.079 14.419 13.261 14.627 13.602C14.848 13.962 14.992 14.486 14.998 15.012C14.998 15.537 14.872 16.054 14.66 16.404C14.453 16.746 14.212 16.924 13.838 17H10V13Z" fill="url(#paint0_linear)"/>
<defs>
<linearGradient id="paint0_linear" x1="8" y1="5" x2="17.0024" y2="5" gradientUnits="userSpaceOnUse">
<stop stop-color="white"/>
</linearGradient>
</defs>
</svg>
