<svg viewBox="0 0 24 24" fill="none" xmlns="http://www.w3.org/2000/svg">
<path d="M2 2V22V2ZM2 22H22H2ZM16.167 16.167C14.786 16.167 13.667 17.286 13.667 18.667C13.667 20.047 14.786 21.167 16.167 21.167C17.548 21.167 18.667 20.047 18.667 18.667C18.667 17.286 17.548 16.167 16.167 16.167ZM7.8333 16.167C6.4526 16.167 5.3333 17.286 5.3333 18.667C5.3333 20.047 6.4526 21.167 7.8333 21.167C9.2141 21.167 10.333 20.047 10.333 18.667C10.333 17.286 9.2141 16.167 7.8333 16.167ZM9.523 14.008L9.573 14.098C10.127 15.02 10.705 15.667 11.395 16.239L11.425 16.259L11.355 16.309C11.159 16.445 10.949 16.584 10.725 16.732L10.604 16.812L10.684 16.938C10.98 17.437 11.157 18.029 11.157 18.662C11.167 20.507 9.674 22 7.8333 22C5.9924 22 4.5 20.507 4.5 18.667C4.5 16.826 5.9924 15.333 7.8333 15.333C8.121 15.333 8.4001 15.363 8.6664 15.438H8.6804L8.7912 15.25C9.0171 14.865 9.2295 14.503 9.4293 14.164L9.523 14.008ZM11.971 12.002H11.911C11.602 12.032 11.344 12.233 11.228 12.507L11.218 12.537L11.198 12.577C11.178 12.647 11.168 12.738 11.168 12.824C11.168 12.914 11.178 12.993 11.198 13.072L11.218 13.112L11.228 13.142C11.344 13.416 11.602 13.615 11.91 13.647H11.97H12.02C12.41 13.607 12.714 13.249 12.714 12.818C12.714 12.386 12.41 12.031 12.021 11.988L11.971 12.002ZM16.583 2C16.583 3.2432 15.913 8.416 14.457 12.208C14.427 12.308 14.377 12.395 14.348 12.484L14.328 12.534L14.183 12.305C13.372 11.019 12.778 10.079 12.344 9.39L12.284 9.29L12.304 9.26C13.234 7.6534 10.943 11.522 16.583 2ZM7.0008 2C15.578 15.436 7.134 2.2099 15.447 15.331L15.487 15.401L15.627 15.381C15.805 15.351 15.983 15.331 16.166 15.331C18.006 15.331 19.499 16.823 19.499 18.664C19.499 20.505 18.006 21.998 16.166 21.998C14.325 21.998 12.832 20.505 12.832 18.664C12.832 17.987 13.035 17.357 13.382 16.831L13.412 16.791L13.212 16.668C11.32 15.501 10.386 14.852 9.2917 12.208C7.7226 8.416 7.0008 3.2432 7.0008 2Z" fill="url(#paint0_linear)"/>
<defs>
<linearGradient id="paint0_linear" x1="2" y1="2" x2="22" y2="2" gradientUnits="userSpaceOnUse">
<stop stop-color="white"/>
</linearGradient>
</defs>
</svg>
