<svg viewBox="0 0 24 24" fill="none" xmlns="http://www.w3.org/2000/svg">
<path d="M3 3V21H21V3H3ZM2 2H22V22H2V2Z" fill="white"/>
<path d="M4 20V16L8 10.5L14 18.5L17 16L20 19V20H4Z" fill="#76A797"/>
<path d="M11 9C11 7.93913 11.4214 6.92172 12.1716 6.17157C12.9217 5.42143 13.9391 5 15 5C16.0609 5 17.0783 5.42143 17.8284 6.17157C18.5786 6.92172 19 7.93913 19 9C19 10.0609 18.5786 11.0783 17.8284 11.8284C17.0783 12.5786 16.0609 13 15 13C13.9391 13 12.9217 12.5786 12.1716 11.8284C11.4214 11.0783 11 10.0609 11 9Z" fill="#EDC87E"/>
</svg>
