<?xml version="1.0" encoding="UTF-8" standalone="no"?>
<svg
   xmlns:osb="http://www.openswatchbook.org/uri/2009/osb"
   xmlns:dc="http://purl.org/dc/elements/1.1/"
   xmlns:cc="http://creativecommons.org/ns#"
   xmlns:rdf="http://www.w3.org/1999/02/22-rdf-syntax-ns#"
   xmlns:svg="http://www.w3.org/2000/svg"
   xmlns="http://www.w3.org/2000/svg"
   id="svg4168"
   version="1.1">
  <defs
     id="defs4170">
    <linearGradient osb:paint="solid" id="Foreground">
      <stop offset="0" style="stop-color:#000000;stop-opacity:1;" />
    </linearGradient>
  </defs>
  <metadata
     id="metadata4173">
    <rdf:RDF>
      <cc:Work
         rdf:about="">
        <dc:format>image/svg+xml</dc:format>
        <dc:type
           rdf:resource="http://purl.org/dc/dcmitype/StillImage" />
        <dc:title></dc:title>
      </cc:Work>
    </rdf:RDF>
  </metadata>
  <path
     style="fill:#000000;fill-opacity:1;stroke:none"
     d="m 3,3 0,1 18,0 0,-1 z m 10,4 0,1 8,0 0,-1 z m 0,4 0,1 8,0 0,-1 z m 0,4 0,1 8,0 0,-1 z m -10,4 0,1 18,0 0,-1 z"
     id="path4136" />
  <path
     style="fill:url(#Foreground);fill-opacity:1;stroke:none"
     d="m 6.5,8 1,0.5 -2.5,2.5 6.5,0 0,1 L 5,12 7.5,14.5 6.5,15 3,11.5 C 3,11.5 5.3772,9.1995 6.5,8 Z"
     id="path4137" />
</svg>
