<?xml version="1.0" encoding="UTF-8" standalone="no"?>
<svg
   xmlns:osb="http://www.openswatchbook.org/uri/2009/osb"
   xmlns:dc="http://purl.org/dc/elements/1.1/"
   xmlns:cc="http://creativecommons.org/ns#"
   xmlns:rdf="http://www.w3.org/1999/02/22-rdf-syntax-ns#"
   xmlns:svg="http://www.w3.org/2000/svg"
   xmlns="http://www.w3.org/2000/svg"
   id="svg4168"
   version="1.1">
  <defs
     id="defs4170">
    <linearGradient osb:paint="solid" id="Foreground">
      <stop offset="0" style="stop-color:#000000;stop-opacity:1;" />
    </linearGradient>
  </defs>
  <metadata
     id="metadata4173">
    <rdf:RDF>
      <cc:Work
         rdf:about="">
        <dc:format>image/svg+xml</dc:format>
        <dc:type
           rdf:resource="http://purl.org/dc/dcmitype/StillImage" />
        <dc:title></dc:title>
      </cc:Work>
    </rdf:RDF>
  </metadata>
  <path
     style="fill:url(#Foreground);fill-opacity:1;stroke:none"
     d="m 14,16 c -1.4,0 -2.7,-0.5 -3.7,-1.3 L 4,21 3,20 9.3,13.7 C 8.5,12.7 8,11.4 8,10 8,6.7 10.7,4 14,4 c 3.3,0 6,2.7 6,6 0,3.3 -2.7,6 -6,6 z M 14,5 c -2.8,0 -5,2.2 -5,5 0,1.2 0.4,2.3 1.1,3.1 l 0.7,0.7 c 0.9,0.7 1.9,1.1 3.1,1.1 2.8,0 5,-2.2 5,-5 C 18.9,7.1 16.8,5 14,5 Z"
     id="path4136" />
</svg>
