<?xml version="1.0" encoding="UTF-8" standalone="no"?>
<svg
   xmlns:osb="http://www.openswatchbook.org/uri/2009/osb"
   xmlns:dc="http://purl.org/dc/elements/1.1/"
   xmlns:cc="http://creativecommons.org/ns#"
   xmlns:rdf="http://www.w3.org/1999/02/22-rdf-syntax-ns#"
   xmlns:svg="http://www.w3.org/2000/svg"
   xmlns="http://www.w3.org/2000/svg"
   id="svg4168"
   version="1.1">
  <defs
     id="defs4170">
    <linearGradient osb:paint="solid" id="Foreground">
      <stop offset="0" style="stop-color:#000000;stop-opacity:1;" />
    </linearGradient>
  </defs>
  <metadata
     id="metadata4173">
    <rdf:RDF>
      <cc:Work
         rdf:about="">
        <dc:format>image/svg+xml</dc:format>
        <dc:type
           rdf:resource="http://purl.org/dc/dcmitype/StillImage" />
        <dc:title></dc:title>
      </cc:Work>
    </rdf:RDF>
  </metadata>
  <path
     style="fill:#000000;fill-opacity:1;stroke:none"
     d="M 11.457,4 6,18 7,18 8.5524,14 10.4,14 c 0.147,-0.16 0.297,-0.322 0.424,-0.475 0.158,-0.19 0.261,-0.348 0.393,-0.525 L 9,13 12,5.2676 14,10.31 c 0,0 0.568,-0.275 0.897,-0.31 L 12.543,4 Z"
     />
  <path
     style="fill:#000000;fill-opacity:1;stroke:none"
     d="M 15.781 10.799 L 15.781 10.805 C 15.595 10.785 15.406 10.795 15.215 10.805 C 14.509 10.875 13.789 11.209 13.127 11.871 C 12.257 12.815 11.345 14.987 7.834 17.164 C 11.608 18.464 14.874 17.82 16.654 17.164 C 20.686 14.999 18.575 11.017 15.781 10.799 z M 15.688 11.67 A 0.86903 0.86903 0 0 0 15.727 11.672 C 16.726 11.757 17.676 12.57 17.941 13.492 C 18.206 14.408 17.989 15.427 16.279 16.365 C 14.919 16.857 12.599 17.283 9.8516 16.75 C 10.797 16.001 11.594 15.266 12.139 14.611 C 12.952 13.633 13.433 12.831 13.746 12.484 C 14.286 11.946 14.806 11.721 15.297 11.672 C 15.464 11.664 15.601 11.661 15.688 11.67 z M 15.58 12.672 C 15.591 12.673 15.485 12.675 15.395 12.678 C 15.154 12.702 14.866 12.806 14.477 13.188 C 14.295 13.396 13.779 14.221 12.92 15.254 C 12.748 15.461 12.478 15.698 12.273 15.918 C 13.765 15.91 15.03 15.712 15.861 15.418 C 17.151 14.687 17.105 14.245 16.967 13.768 C 16.824 13.272 16.188 12.724 15.643 12.676 A 1.8837 1.8837 0 0 1 15.58 12.672 z "
     />
  <path
     style="fill:#000000;fill-opacity:1;stroke:none"
     d="M 22 6 L 17.221 10.121 C 18.171 10.523 18.946 11.251 19.42 12.154 L 22 10 L 22 6 z "
     /> 
  <path
     style="fill:url(#Foreground);fill-opacity:1;stroke:none"
     d="m 2,19 0,3 20,0 0,-3 z"
     />
</svg>
