<?xml version="1.0" encoding="UTF-8" standalone="no"?>
<svg
   xmlns:osb="http://www.openswatchbook.org/uri/2009/osb"
   xmlns:dc="http://purl.org/dc/elements/1.1/"
   xmlns:cc="http://creativecommons.org/ns#"
   xmlns:rdf="http://www.w3.org/1999/02/22-rdf-syntax-ns#"
   xmlns:svg="http://www.w3.org/2000/svg"
   xmlns="http://www.w3.org/2000/svg"
   id="svg4168"
   version="1.1">
  <defs
     id="defs4170">
    <linearGradient osb:paint="solid" id="Foreground">
      <stop offset="0" style="stop-color:#000000;stop-opacity:1;" />
    </linearGradient>
  </defs>
  <metadata
     id="metadata4173">
    <rdf:RDF>
      <cc:Work
         rdf:about="">
        <dc:format>image/svg+xml</dc:format>
        <dc:type
           rdf:resource="http://purl.org/dc/dcmitype/StillImage" />
        <dc:title></dc:title>
      </cc:Work>
    </rdf:RDF>
  </metadata>
  <path
     style="fill:#000000;fill-opacity:1;stroke:none"
     d="m 8,8 3,5 -3,5 1,0 2.5,-4.166 L 14,18 15,18 12,13 15,8 14,8 11.5,12.154 9,8 Z"
     id="path4136" />
  <path
     style="fill:url(#Foreground);fill-opacity:1;stroke:none"
     d="m 18,15 c -0.486,0 -0.979,0.16 -1.363,0.502 C 16.252,15.844 16,16.375 16,17 l 1,0 c 0,-0.375 0.123,-0.594 0.301,-0.752 C 17.479,16.09 17.736,16 18,16 c 0.264,0 0.521,0.09 0.699,0.248 C 18.877,16.406 19,16.625 19,17 c 0,0.419 -0.09,0.652 -0.227,0.844 -0.137,0.192 -0.348,0.353 -0.634,0.527 -0.574,0.348 -1.44,0.72 -2.055,1.647 L 16,20.145 16,21 l 4,0 0,-1 -2.344,0 c 0.331,-0.246 0.62,-0.543 1,-0.773 0.331,-0.201 0.672,-0.437 0.932,-0.801 C 19.848,18.062 20,17.581 20,17 20,16.375 19.748,15.844 19.363,15.502 18.979,15.16 18.486,15 18,15 Z"
     id="path4137" />
</svg>
