<?xml version="1.0" encoding="UTF-8" standalone="no"?>
<svg
   xmlns:osb="http://www.openswatchbook.org/uri/2009/osb"
   xmlns:dc="http://purl.org/dc/elements/1.1/"
   xmlns:cc="http://creativecommons.org/ns#"
   xmlns:rdf="http://www.w3.org/1999/02/22-rdf-syntax-ns#"
   xmlns:svg="http://www.w3.org/2000/svg"
   xmlns="http://www.w3.org/2000/svg"
   id="svg4168"
   version="1.1">
  <defs
     id="defs4170">
    <linearGradient osb:paint="solid" id="Foreground">
      <stop offset="0" style="stop-color:#000000;stop-opacity:1;" />
    </linearGradient>
  </defs>
  <metadata
     id="metadata4173">
    <rdf:RDF>
      <cc:Work
         rdf:about="">
        <dc:format>image/svg+xml</dc:format>
        <dc:type
           rdf:resource="http://purl.org/dc/dcmitype/StillImage" />
        <dc:title></dc:title>
      </cc:Work>
    </rdf:RDF>
  </metadata>
  <path
     style="fill:url(#Foreground);fill-opacity:1;stroke:none"
     d="m 7,4 0,9 c 0,1.625 0.6274,2.906 1.5742,3.748 C 9.5211,17.59 10.764,18 12,18 13.236,18 14.479,17.59 15.426,16.748 16.373,15.906 17,14.625 17,13 l 0,-9 -1,0 0,9 c 0,1.375 -0.498,2.344 -1.238,3.002 C 14.021,16.66 13.014,17 12,17 10.986,17 9.9789,16.66 9.2383,16.002 8.4976,15.344 8,14.375 8,13 L 8,4 7,4 Z"
     id="path4136" />
  <path
     style="fill:url(#Foreground);fill-opacity:1;stroke:none"
     d="m 6,20 0,1 12,0 0,-1 -12,0 z"
     id="path4137" />
</svg>
