<?xml version="1.0" encoding="UTF-8" standalone="no"?>
<svg
   xmlns:osb="http://www.openswatchbook.org/uri/2009/osb"
   xmlns:dc="http://purl.org/dc/elements/1.1/"
   xmlns:cc="http://creativecommons.org/ns#"
   xmlns:rdf="http://www.w3.org/1999/02/22-rdf-syntax-ns#"
   xmlns:svg="http://www.w3.org/2000/svg"
   xmlns="http://www.w3.org/2000/svg"
   id="svg4168"
   version="1.1">
  <defs
     id="defs4170">
    <linearGradient osb:paint="solid" id="Foreground">
      <stop offset="0" style="stop-color:#000000;stop-opacity:1;" />
    </linearGradient>
  </defs>
  <metadata
     id="metadata4173">
    <rdf:RDF>
      <cc:Work
         rdf:about="">
        <dc:format>image/svg+xml</dc:format>
        <dc:type
           rdf:resource="http://purl.org/dc/dcmitype/StillImage" />
        <dc:title></dc:title>
      </cc:Work>
    </rdf:RDF>
  </metadata>
  <path
     style="fill:url(#Foreground);fill-opacity:1;stroke:none"
     d="M 7 4 L 7 18 L 13.09 18 L 13.18 17.98 C 14.155 17.802 14.924 17.18 15.375 16.436 C 15.826 15.693 16.012 14.834 16.002 13.984 C 15.992 13.135 15.786 12.284 15.336 11.551 C 15.084 11.141 14.723 10.792 14.303 10.51 C 14.323 10.48 14.353 10.469 14.363 10.439 C 14.817 9.7004 15.013 8.8425 15.012 7.9922 C 15.012 7.142 14.811 6.2867 14.357 5.5488 C 13.906 4.8158 13.148 4.1978 12.184 4.0176 L 12.092 4 L 7 4 z M 9 6 L 11.84 6 C 12.196 6.075 12.444 6.2558 12.656 6.6016 C 12.875 6.9574 13.013 7.4772 13.014 8.002 C 13.014 8.5267 12.877 9.0441 12.66 9.3984 C 12.456 9.7323 12.223 9.9197 11.879 10 L 9 10 L 9 6 z M 9 12 L 12.863 12 C 13.181 12.079 13.419 12.261 13.627 12.602 C 13.848 12.962 13.992 13.486 13.998 14.012 C 13.998 14.537 13.872 15.054 13.66 15.404 C 13.453 15.746 13.212 15.924 12.838 16 L 9 16 L 9 12 z"
     id="path4136" />
</svg>
