<?xml version="1.0" encoding="UTF-8" standalone="no"?>
<svg
   xmlns:osb="http://www.openswatchbook.org/uri/2009/osb"
   xmlns:dc="http://purl.org/dc/elements/1.1/"
   xmlns:cc="http://creativecommons.org/ns#"
   xmlns:rdf="http://www.w3.org/1999/02/22-rdf-syntax-ns#"
   xmlns:svg="http://www.w3.org/2000/svg"
   xmlns="http://www.w3.org/2000/svg"
   id="svg4168"
   version="1.1">
  <defs
     id="defs4170">
    <linearGradient osb:paint="solid" id="Foreground">
      <stop offset="0" style="stop-color:#000000;stop-opacity:1;" />
    </linearGradient>
  </defs>
  <metadata
     id="metadata4173">
    <rdf:RDF>
      <cc:Work
         rdf:about="">
        <dc:format>image/svg+xml</dc:format>
        <dc:type
           rdf:resource="http://purl.org/dc/dcmitype/StillImage" />
        <dc:title></dc:title>
      </cc:Work>
    </rdf:RDF>
  </metadata>
  <path
     style="fill:url(#Foreground);fill-opacity:1;stroke:none"
     d="m 2.5,2 0,20 m 0,0 20,0 m -5.833,-5.833 c -1.381,0 -2.5,1.119 -2.5,2.5 0,1.38 1.119,2.5 2.5,2.5 1.381,0 2.5,-1.12 2.5,-2.5 0,-1.381 -1.119,-2.5 -2.5,-2.5 z m -8.3337,0 c -1.3807,0 -2.5,1.119 -2.5,2.5 0,1.38 1.1193,2.5 2.5,2.5 1.3808,0 2.4997,-1.12 2.4997,-2.5 0,-1.381 -1.1189,-2.5 -2.4997,-2.5 z m 1.6897,-2.159 0.05,0.09 c 0.554,0.922 1.132,1.569 1.822,2.141 l 0.03,0.02 -0.07,0.05 c -0.196,0.136 -0.406,0.275 -0.63,0.423 l -0.121,0.08 0.08,0.126 c 0.296,0.499 0.473,1.091 0.473,1.724 C 11.667,20.507 10.174,22 8.3333,22 6.4924,22 5,20.507 5,18.667 c 0,-1.841 1.4924,-3.334 3.3333,-3.334 0.2877,0 0.5668,0.03 0.8331,0.105 l 0.014,0 0.1108,-0.188 c 0.2259,-0.385 0.4383,-0.747 0.6381,-1.086 z m 2.448,-2.006 -0.06,0 c -0.309,0.03 -0.567,0.231 -0.683,0.505 l -0.01,0.03 -0.02,0.04 c -0.02,0.07 -0.03,0.161 -0.03,0.247 0,0.09 0.01,0.169 0.03,0.248 l 0.02,0.04 0.01,0.03 c 0.116,0.274 0.374,0.473 0.682,0.505 l 0.06,0 0.05,0 c 0.39,-0.04 0.694,-0.398 0.694,-0.829 0,-0.432 -0.304,-0.787 -0.693,-0.83 z M 17.083,2 c 0,1.2432 -0.67,6.416 -2.126,10.208 -0.03,0.1 -0.08,0.187 -0.109,0.276 l -0.02,0.05 -0.145,-0.229 C 13.872,11.019 13.278,10.079 12.844,9.39 l -0.06,-0.1 0.02,-0.03 C 13.734,7.6534 11.443,11.522 17.083,2 Z M 7.5008,2 C 16.078,15.436 7.634,2.2099 15.947,15.331 l 0.04,0.07 0.14,-0.02 c 0.178,-0.03 0.356,-0.05 0.539,-0.05 1.84,0 3.333,1.492 3.333,3.333 0,1.841 -1.493,3.334 -3.333,3.334 -1.841,0 -3.334,-1.493 -3.334,-3.334 0,-0.677 0.203,-1.307 0.55,-1.833 l 0.03,-0.04 -0.2,-0.123 C 11.82,15.501 10.886,14.852 9.7917,12.208 8.2226,8.416 7.5008,3.2432 7.5008,2 Z"
     id="path4136" />
</svg>
