<?xml version="1.0" encoding="UTF-8" standalone="no"?>
<svg
   xmlns:osb="http://www.openswatchbook.org/uri/2009/osb"
   xmlns:dc="http://purl.org/dc/elements/1.1/"
   xmlns:cc="http://creativecommons.org/ns#"
   xmlns:rdf="http://www.w3.org/1999/02/22-rdf-syntax-ns#"
   xmlns:svg="http://www.w3.org/2000/svg"
   xmlns="http://www.w3.org/2000/svg"
   id="svg4168"
   version="1.1">
  <defs
     id="defs4170">
    <linearGradient osb:paint="solid" id="Foreground">
      <stop offset="0" style="stop-color:#000000;stop-opacity:1;" />
    </linearGradient>
  </defs>
  <metadata
     id="metadata4173">
    <rdf:RDF>
      <cc:Work
         rdf:about="">
        <dc:format>image/svg+xml</dc:format>
        <dc:type
           rdf:resource="http://purl.org/dc/dcmitype/StillImage" />
        <dc:title></dc:title>
      </cc:Work>
    </rdf:RDF>
  </metadata>
  <path
     style="fill:#000000;fill-opacity:1;stroke:none"
     d="M 17.804,2.8622 17.854,2.8172 7.5,11 6.5,12 7,12.5 6.5,13 l 4,4 0.5,-0.5 0.5,0.5 2,-2 7.934,-8.6186 -0.03,0.029 C 23.412,4 20,1 17.804,2.8622 Z m 3.25,3.1951 c -0.01,0.01 0.01,-0.01 0,0 L 13,14.5 9,10.5 18.158,3.2157 c 0.02,-0.014 -0.02,0.016 0,0 2.058,-1.5558 4.387,1.3204 2.896,2.8416 z"
     />  
  
  <path
     style="fill:#000000;fill-opacity:1;stroke:none"
     d="M 6.5,14 3,18 9,18 9.5,17 Z"
     />
  <path
     style="fill:url(#Foreground);fill-opacity:1;stroke:none"
     d="m 2,19 0,3 20,0 0,-3 z"
     />
</svg>
