<?xml version="1.0" encoding="UTF-8" standalone="no"?>
<svg
   xmlns:osb="http://www.openswatchbook.org/uri/2009/osb"
   xmlns:dc="http://purl.org/dc/elements/1.1/"
   xmlns:cc="http://creativecommons.org/ns#"
   xmlns:rdf="http://www.w3.org/1999/02/22-rdf-syntax-ns#"
   xmlns:svg="http://www.w3.org/2000/svg"
   xmlns="http://www.w3.org/2000/svg"
   id="svg4168"
   version="1.1">
  <defs
     id="defs4170">
    <linearGradient osb:paint="solid" id="Foreground">
      <stop offset="0" style="stop-color:#000000;stop-opacity:1;" />
    </linearGradient>
  </defs>
  <metadata
     id="metadata4173">
    <rdf:RDF>
      <cc:Work
         rdf:about="">
        <dc:format>image/svg+xml</dc:format>
        <dc:type
           rdf:resource="http://purl.org/dc/dcmitype/StillImage" />
        <dc:title></dc:title>
      </cc:Work>
    </rdf:RDF>
  </metadata>
  <path
     style="fill:#000000;fill-opacity:1;stroke:none"
     d="m 9,4 0,1 12,0 0,-1 z m 0,7 0,1 12,0 0,-1 z m 0,7 0,1 12,0 0,-1 z"
     id="path4136" />
  <path
     style="fill:url(#Foreground);fill-opacity:1;stroke:none"
     d="M 3,3 4,3 4,7 5,7 5,2 3,2 Z m 0,6 0,1 2,0 0,1 -2,2 0,1 3,0 L 6,13 4.5,13 6,11.5 6,9 Z m 0,7 0,1 1.4857,0 C 4.8453,17 5,17.267 5,17.503 5,17.806 4.7437,18 4.4968,18 L 3,18 3,19 4.5078,19 C 4.8844,19 5,19.288 5,19.503 5,19.744 4.8473,20 4.5078,20 L 3,20 3,21 4.9939,21 C 5.762,21 6,20.755 6,20.011 L 6,19.26 C 6,18.654 5.5,18.5 5.5,18.5 5.5,18.5 6,18.297 6,17.758 L 6,17.017 C 6,16.5 5.732,16 4.9939,16 Z"
     id="path4137" />
</svg>
