<?xml version="1.0" encoding="UTF-8" standalone="no"?>
<svg
   xmlns:osb="http://www.openswatchbook.org/uri/2009/osb"
   xmlns:dc="http://purl.org/dc/elements/1.1/"
   xmlns:cc="http://creativecommons.org/ns#"
   xmlns:rdf="http://www.w3.org/1999/02/22-rdf-syntax-ns#"
   xmlns:svg="http://www.w3.org/2000/svg"
   xmlns="http://www.w3.org/2000/svg"
   id="svg4168"
   version="1.1">
  <defs
     id="defs4170">
    <linearGradient osb:paint="solid" id="Foreground">
      <stop offset="0" style="stop-color:#000000;stop-opacity:1;" />
    </linearGradient>
  </defs>
  <metadata
     id="metadata4173">
    <rdf:RDF>
      <cc:Work
         rdf:about="">
        <dc:format>image/svg+xml</dc:format>
        <dc:type
           rdf:resource="http://purl.org/dc/dcmitype/StillImage" />
        <dc:title></dc:title>
      </cc:Work>
    </rdf:RDF>
  </metadata>
  <path
     style="fill:#000000;fill-opacity:1;stroke:none"
     d="m 8,8 3,5 -3,5 1,0 2.5,-4.166 L 14,18 15,18 12,13 15,8 14,8 11.5,12.154 9,8 Z"
     id="path4136" />
  <path
     style="fill:url(#Foreground);fill-opacity:1;stroke:none"
     d="M 18,2 C 17.514,2 17.021,2.16 16.637,2.502 16.252,2.844 16,3.375 16,4 l 1,0 C 17,3.625 17.123,3.406 17.301,3.248 17.479,3.09 17.736,3 18,3 18.264,3 18.521,3.09 18.699,3.248 18.877,3.406 19,3.625 19,4 c 0,0.419 -0.09,0.652 -0.227,0.844 -0.137,0.192 -0.348,0.353 -0.634,0.527 -0.574,0.348 -1.44,0.72 -2.055,1.647 L 16,7.145 16,8 20,8 20,7 17.656,7 c 0.331,-0.246 0.62,-0.543 1,-0.773 C 18.987,6.026 19.328,5.79 19.588,5.426 19.848,5.062 20,4.581 20,4 20,3.375 19.748,2.844 19.363,2.502 18.979,2.16 18.486,2 18,2 Z"
     id="path4137" />
</svg>
