<svg viewBox="0 0 16 16" fill="none" xmlns="http://www.w3.org/2000/svg">
<path fill-rule="evenodd" clip-rule="evenodd" d="M8 15C11.866 15 15 11.866 15 8C15 4.13401 11.866 1 8 1C4.13401 1 1 4.13401 1 8C1 11.866 4.13401 15 8 15ZM8 16C12.4183 16 16 12.4183 16 8C16 3.58172 12.4183 0 8 0C3.58172 0 0 3.58172 0 8C0 12.4183 3.58172 16 8 16Z" fill="#E81123"/>
<path fill-rule="evenodd" clip-rule="evenodd" d="M4.46447 4.46448L8 8.00001V13C5.23858 13 3 10.7614 3 8.00001C3 6.6193 3.55964 5.3693 4.46447 4.46448Z" fill="#E81123"/>
</svg>
