<?xml version="1.0" encoding="UTF-8" standalone="no"?>
<svg
   xmlns="http://www.w3.org/2000/svg"
   version="1.1"
   viewBox="0 0 176 176"
   height="49.671112mm"
   width="49.671112mm">

  <g
     transform="translate(0,-876.3622)">
    <g
       transform="translate(-12,864.3622)"
       style="overflow:visible">
      <path
         style="fill:#ffffff"
         d="m 184.7,39.3 -23.1,23 c -3.1,3.1 -8.2,3.1 -11.3,0 L 137.6,49.6 c -3.1,-3.1 -3.1,-8.2 0,-11.3 l 23.1,-23 C 155.5,13.2 149.9,12 144,12 c -24.3,0 -44,19.7 -44,44 0,5.9 1.2,11.6 3.3,16.7 L 72.7,103.3 C 67.5,101.2 61.9,100 56,100 c -24.3,0 -44,19.7 -44,44 0,5.9 1.2,11.6 3.3,16.7 l 23.1,-23 c 3.1,-3.1 8.2,-3.1 11.3,0 l 12.7,12.7 c 3.1,3.1 3.1,8.2 0,11.3 l -23.1,23 c 5.2,2.1 10.8,3.3 16.7,3.3 24.3,0 44,-19.7 44,-44 0,-5.9 -1.2,-11.6 -3.3,-16.7 l 30.6,-30.6 c 5.2,2.1 10.8,3.3 16.7,3.3 24.3,0 44,-19.7 44,-44 0,-5.9 -1.2,-11.6 -3.3,-16.7 z m -55.5,39.5 -50.3,50.3 c -1.6,1.6 -4.1,1.6 -5.7,0 l -2.3,-2.3 c -1.6,-1.6 -1.6,-4.1 0,-5.7 l 50.3,-50.3 c 1.6,-1.6 4.1,-1.6 5.7,0 l 2.3,2.3 c 1.5,1.6 1.5,4.2 0,5.7 z"
         id="path4136"
         stroke-linejoin="Miter"
         stroke-linecap="Butt" />
    </g>
  </g>
</svg>
