<?xml version="1.0" encoding="UTF-8" standalone="no"?>
<svg
   xmlns="http://www.w3.org/2000/svg"
   version="1.1"
   x="0px"
   y="0px"
   viewBox="0 0 20 20"
   enable-background="new 0 0 576 774"
   xml:space="preserve"
   width="20"
   height="20">
   
   <path
    id="rect4136"
    d="m 4,0 0,1 0,6 1,-1 1,1 0,-5 9,0 0,4 1,1 1,-1 0,-6 z m 0,14 0,6 13,0 0,-7 -1,1 -1,-1 0,5 -9,0 0,-4 -1,-1 z"
    style="fill:#ffffff" />
  <path
     style="fill:#ffffff"
     d="m 13,6 -5,5 -3,-3 -5,5 0,3 5,-5 3,3 5,-5 3,3 4,-4 0,-3 -4,4 z"
     id="path4144" />
</svg>