<?xml version="1.0" encoding="UTF-8" standalone="no"?>
<svg
   xmlns="http://www.w3.org/2000/svg"
   version="1.1"
   viewBox="0 0 20 20"
   height="20"
   width="20">

  <path
     style="fill:#ffffff"
     d="M 10 0 A 10 10 0 0 0 0 10 A 10 10 0 0 0 10 20 A 10 10 0 0 0 20 10 A 10 10 0 0 0 10 0 z M 10 2 A 8 8 0 0 1 18 10 A 8 8 0 0 1 10 18 A 8 8 0 0 1 2 10 A 8 8 0 0 1 10 2 z M 9 4 C 8.446 4 8 4.446 8 5 L 8 11 C 8 11.554 8.446 12 9 12 L 15 12 C 15.554 12 16 11.554 16 11 C 16 10.446 15.554 10 15 10 L 10 10 L 10 5 C 10 4.446 9.554 4 9 4 z"
     id="path962"/>
</svg>
