<?xml version="1.0" encoding="UTF-8" standalone="no"?>
<svg
   xmlns="http://www.w3.org/2000/svg"
   version="1.1"
   viewBox="0 0 176 176"
   height="49.671112mm"
   width="49.671112mm">

  <g
     transform="translate(0,-876.3622)">
    <g
       transform="translate(-12,864.3622)"
       style="overflow:visible">
      <path
         style="fill:#ffffff"
         d="m 100,116 c -8.8,0 -16,7.2 -16,16 0,8.8 7.2,16 16,16 8.8,0 16,-7.2 16,-16 0,-8.8 -7.2,-16 -16,-16 z m 0,-104 c -48.6,0 -88,39.4 -88,88 0,48.6 39.4,88 88,88 48.6,0 88,-39.4 88,-88 0,-48.6 -39.4,-88 -88,-88 z m 29.2,138.8 -10.3,10.3 c -1.6,1.6 -4.1,1.6 -5.7,0 L 107,155 c -2.2,0.7 -4.5,1 -7,1 -13.3,0 -24,-10.7 -24,-24 0,-4.1 1,-7.9 2.8,-11.3 L 46.5,79.2 c -1.3,-1.7 -1,-2.1 0.7,-0.7 l 41.6,32.3 c 3.4,-1.8 7.2,-2.8 11.3,-2.8 13.3,0 24,10.7 24,24 0,2.4 -0.4,4.8 -1,7 l 6.2,6.2 c 1.4,1.5 1.4,4.1 -0.1,5.6 z M 100,36 c -35.3,0 -64,28.7 -64,64 0,17.7 7.2,33.7 18.7,45.3 L 43.4,156.6 C 29,142.1 20,122.1 20,100 20,55.8 55.8,20 100,20 c 20.1,0 38.4,7.4 52.4,19.6 L 141.1,50.9 C 130,41.6 115.6,36 100,36 Z m 56.6,120.6 -11.3,-11.3 C 156.9,133.7 164,117.7 164,100 164,84.4 158.4,70 149.1,58.9 l 11.3,-11.3 c 12.2,14 19.6,32.4 19.6,52.4 0,22.1 -9,42.1 -23.4,56.6 z"
         stroke-linejoin="Miter"
         stroke-linecap="Butt" />
    </g>
  </g>
</svg>
