<?xml version="1.0" encoding="UTF-8" standalone="no"?>
<svg
   xmlns="http://www.w3.org/2000/svg"
   width="192"
   height="192"
   viewBox="0 0 192 192"
   version="1.1">

  <g
     transform="translate(0.05000305,-860.2622)">
    <g
       style="overflow:visible"
       transform="translate(-4,856.1622)">
      <path
         stroke-linecap="Butt"
         stroke-linejoin="Miter"
         d="M 170.9,112.7 196,100.1 170.9,87.5 c -1.1,-6.3 -3,-12.2 -5.6,-17.8 L 155,89.2 c 0.7,3.5 1.1,7.2 1.1,11 0,30.9 -25.1,56 -56,56 -3.8,0 -7.4,-0.4 -11,-1.1 l -19.4,10.4 c 5.6,2.6 11.6,4.5 17.8,5.6 l 12.6,25.1 12.6,-25.1 c 29.6,-5.3 53,-28.7 58.2,-58.4 z M 188,12.1 103.7,60.3 c -1.2,-0.1 -2.4,-0.2 -3.7,-0.2 -22.1,0 -40,17.9 -40,40 0,1.2 0.1,2.5 0.2,3.7 L 12,188.1 96.3,140 c 1.2,0.1 2.4,0.2 3.7,0.2 22.1,0 40,-17.9 40,-40 0,-1.2 -0.1,-2.5 -0.2,-3.7 L 188,12.1 Z m -88,112 c -13.3,0 -24,-10.7 -24,-24 0,-13.3 10.7,-24 24,-24 13.3,0 24,10.7 24,24 0,13.3 -10.7,24 -24,24 z M 29.2,112.7 c 1.1,6.3 3,12.2 5.6,17.8 l 10.4,-19.4 c -0.7,-3.5 -1.1,-7.2 -1.1,-11 0,-30.9 25.1,-56 56,-56 3.8,0 7.4,0.4 11,1.1 l 19.4,-10.4 c -5.6,-2.6 -11.6,-4.5 -17.8,-5.6 L 100,4.1 87.5,29.3 C 57.8,34.5 34.4,57.9 29.2,87.6 L 4,100.1 29.2,112.7 Z"
         style="fill:#ffffff" />
    </g>
  </g>
</svg>
