<?xml version="1.0" encoding="UTF-8" standalone="no"?>
<svg
   xmlns:dc="http://purl.org/dc/elements/1.1/"
   xmlns:cc="http://creativecommons.org/ns#"
   xmlns:rdf="http://www.w3.org/1999/02/22-rdf-syntax-ns#"
   xmlns:svg="http://www.w3.org/2000/svg"
   xmlns="http://www.w3.org/2000/svg"
   version="1.1"
   id="svg4525"
   viewBox="0 0 20 20"
   height="20"
   width="20">
  <metadata
     id="metadata4522">
    <rdf:RDF>
      <cc:Work
         rdf:about="">
        <dc:format>image/svg+xml</dc:format>
        <dc:type
           rdf:resource="http://purl.org/dc/dcmitype/StillImage" />
        <dc:title></dc:title>
      </cc:Work>
    </rdf:RDF>
  </metadata>
  <g
     id="layer1" />
  <path
     style="fill:#ffffffff;fill-rule:evenodd;stroke:none;stroke-width:1px;stroke-linecap:butt;stroke-linejoin:miter;stroke-opacity:1"
     d="M 4 0 L 4 2 L 0 2 L 0 20 L 20 20 L 20 2 L 16 2 L 16 0 L 13 0 L 13 2 L 7 2 L 7 0 L 4 0 z M 2 5 L 18 5 L 18 18 L 2 18 L 2 5 z M 6 6 L 6 8 L 8 8 L 8 6 L 6 6 z M 9 6 L 9 8 L 11 8 L 11 6 L 9 6 z M 12 6 L 12 8 L 14 8 L 14 6 L 12 6 z M 15 6 L 15 8 L 17 8 L 17 6 L 15 6 z M 3 9 L 3 11 L 5 11 L 5 9 L 3 9 z M 6 9 L 6 11 L 8 11 L 8 9 L 6 9 z M 9 9 L 9 11 L 11 11 L 11 9 L 9 9 z M 12 9 L 12 11 L 14 11 L 14 9 L 12 9 z M 15 9 L 15 11 L 17 11 L 17 9 L 15 9 z M 3 12 L 3 14 L 5 14 L 5 12 L 3 12 z M 6 12 L 6 14 L 8 14 L 8 12 L 6 12 z M 9 12 L 9 14 L 11 14 L 11 12 L 9 12 z M 12 12 L 12 14 L 14 14 L 14 12 L 12 12 z M 15 12 L 15 14 L 17 14 L 17 12 L 15 12 z M 3 15 L 3 17 L 5 17 L 5 15 L 3 15 z M 6 15 L 6 17 L 8 17 L 8 15 L 6 15 z M 9 15 L 9 17 L 11 17 L 11 15 L 9 15 z M 12 15 L 12 17 L 14 17 L 14 15 L 12 15 z "
     id="path6015" />
</svg>
