<svg viewBox="0 0 16 16" fill="none" xmlns="http://www.w3.org/2000/svg">
<path d="M13.9646 7.71709C13.9646 7.76424 13.9646 7.81139 13.9646 7.85855C13.9699 7.9057 13.9725 7.95285 13.9725 8C13.9725 8.04715 13.9699 8.0943 13.9646 8.14145C13.9646 8.18861 13.9646 8.23576 13.9646 8.28291L16 9.54813L14.7505 12.558L12.4165 12.0236C12.2908 12.1598 12.1598 12.2908 12.0236 12.4165L12.558 14.7505L9.54813 16L8.28291 13.9646C8.23576 13.9646 8.18861 13.9673 8.14145 13.9725C8.0943 13.9725 8.04715 13.9725 8 13.9725C7.95285 13.9725 7.9057 13.9725 7.85855 13.9725C7.81139 13.9673 7.76424 13.9646 7.71709 13.9646L6.45187 16L3.44204 14.7505L3.97642 12.4165C3.84021 12.2908 3.70923 12.1598 3.5835 12.0236L1.24951 12.558L0 9.54813L2.03536 8.28291C2.03536 8.23576 2.03274 8.18861 2.0275 8.14145C2.0275 8.0943 2.0275 8.04715 2.0275 8C2.0275 7.95285 2.0275 7.9057 2.0275 7.85855C2.03274 7.81139 2.03536 7.76424 2.03536 7.71709L0 6.45187L1.24951 3.44204L3.5835 3.97642C3.70923 3.84021 3.84021 3.70923 3.97642 3.5835L3.44204 1.24951L6.45187 0L7.71709 2.03536C7.76424 2.03536 7.81139 2.03536 7.85855 2.03536C7.9057 2.03012 7.95285 2.0275 8 2.0275C8.04715 2.0275 8.0943 2.03012 8.14145 2.03536C8.18861 2.03536 8.23576 2.03536 8.28291 2.03536L9.54813 0L12.558 1.24951L12.0236 3.5835C12.1598 3.70923 12.2908 3.84021 12.4165 3.97642L14.7505 3.44204L16 6.45187L13.9646 7.71709ZM13.0452 8.7387C13.0557 8.61297 13.0661 8.48985 13.0766 8.36935C13.0871 8.24361 13.0923 8.11788 13.0923 7.99214C13.0923 7.87164 13.0871 7.74853 13.0766 7.62279C13.0661 7.49705 13.0557 7.37394 13.0452 7.25344L14.8998 6.09823L14.224 4.46365L12.0943 4.95874C11.9319 4.75966 11.7642 4.57629 11.5914 4.40864C11.4237 4.241 11.2403 4.07335 11.0413 3.9057L11.5363 1.77603L9.90177 1.1002L8.7387 2.95481C8.61821 2.94434 8.49509 2.93386 8.36935 2.92338C8.24361 2.9129 8.1205 2.90766 8 2.90766C7.87426 2.90766 7.74853 2.9129 7.62279 2.92338C7.50229 2.93386 7.37917 2.94434 7.25344 2.95481L6.09823 1.1002L4.46365 1.77603L4.95874 3.9057C4.75966 4.06811 4.57629 4.23576 4.40864 4.40864C4.241 4.57629 4.07335 4.75966 3.9057 4.95874L1.77603 4.46365L1.1002 6.09823L2.95481 7.2613C2.94434 7.38703 2.93386 7.51277 2.92338 7.63851C2.9129 7.759 2.90766 7.88212 2.90766 8.00786C2.90766 8.12836 2.9129 8.25147 2.92338 8.37721C2.93386 8.50295 2.94434 8.62606 2.95481 8.74656L1.1002 9.90177L1.77603 11.5363L3.9057 11.0413C4.06811 11.2403 4.23314 11.4237 4.40079 11.5914C4.57367 11.759 4.75966 11.9267 4.95874 12.0943L4.46365 14.224L6.09823 14.8998L7.2613 13.0452C7.38179 13.0557 7.50491 13.0661 7.63065 13.0766C7.75639 13.0871 7.8795 13.0923 8 13.0923C8.12574 13.0923 8.24885 13.0871 8.36935 13.0766C8.49509 13.0661 8.62083 13.0557 8.74656 13.0452L9.90177 14.8998L11.5363 14.224L11.0413 12.0943C11.2403 11.9319 11.4237 11.7669 11.5914 11.5992C11.759 11.4263 11.9267 11.2403 12.0943 11.0413L14.224 11.5363L14.8998 9.90177L13.0452 8.7387ZM8 5.04519C8.40864 5.04519 8.79109 5.12377 9.14735 5.28094C9.50884 5.43287 9.82318 5.64244 10.0904 5.90963C10.3576 6.17682 10.5671 6.49116 10.7191 6.85265C10.8762 7.20891 10.9548 7.59136 10.9548 8C10.9548 8.40864 10.8762 8.79371 10.7191 9.15521C10.5671 9.51146 10.3576 9.82318 10.0904 10.0904C9.82318 10.3576 9.50884 10.5697 9.14735 10.7269C8.79109 10.8788 8.40864 10.9548 8 10.9548C7.59136 10.9548 7.20629 10.8788 6.84479 10.7269C6.48854 10.5697 6.17682 10.3576 5.90963 10.0904C5.64244 9.82318 5.43026 9.51146 5.27308 9.15521C5.12115 8.79371 5.04519 8.40864 5.04519 8C5.04519 7.59136 5.12115 7.20891 5.27308 6.85265C5.43026 6.49116 5.64244 6.17682 5.90963 5.90963C6.17682 5.64244 6.48854 5.43287 6.84479 5.28094C7.20629 5.12377 7.59136 5.04519 8 5.04519ZM8 10.0747C8.28815 10.0747 8.55796 10.0223 8.80943 9.91749C9.0609 9.80747 9.28094 9.65815 9.46955 9.46955C9.65815 9.28094 9.80485 9.0609 9.90963 8.80943C10.0196 8.55796 10.0747 8.28815 10.0747 8C10.0747 7.71185 10.0196 7.44204 9.90963 7.19057C9.80485 6.9391 9.65815 6.71906 9.46955 6.53045C9.28094 6.34185 9.0609 6.19515 8.80943 6.09037C8.55796 5.98035 8.28815 5.92534 8 5.92534C7.71185 5.92534 7.44204 5.98035 7.19057 6.09037C6.9391 6.19515 6.71906 6.34185 6.53045 6.53045C6.34185 6.71906 6.19253 6.9391 6.08251 7.19057C5.97773 7.44204 5.92534 7.71185 5.92534 8C5.92534 8.28815 5.97773 8.55796 6.08251 8.80943C6.19253 9.0609 6.34185 9.28094 6.53045 9.46955C6.71906 9.65815 6.9391 9.80747 7.19057 9.91749C7.44204 10.0223 7.71185 10.0747 8 10.0747Z" fill="black"/>
</svg>
