<svg viewBox="0 0 16 16" fill="none" xmlns="http://www.w3.org/2000/svg">
<path fill-rule="evenodd" clip-rule="evenodd" d="M5 1C5 0.447715 5.44772 0 6 0H10C10.5523 0 11 0.447715 11 1H12C12.5523 1 13 1.44772 13 2V4H3V2C3 1.44772 3.44772 1 4 1H5ZM6 1.5C6 1.22386 6.22386 1 6.5 1H9.5C9.77614 1 10 1.22386 10 1.5V2H12V3H4V2H6V1.5ZM2 1C1.44772 1 1 1.44772 1 2V15C1 15.5523 1.44772 16 2 16H14C14.5523 16 15 15.5523 15 15V2C15 1.44772 14.5523 1 14 1V15H2V1ZM4.24274 9.11929L4.94067 8.40313L7.49979 10.873L12.2112 6.01105L12.9274 6.70899L8.21595 11.5709L7.51801 12.2871L6.80185 11.5891L4.24274 9.11929Z" fill="black"/>
</svg>
