<svg viewBox="0 0 16 16" fill="none" xmlns="http://www.w3.org/2000/svg">
<path d="M12.5 12C12.7083 12 12.9036 12.0391 13.0859 12.1172C13.2682 12.1953 13.4271 12.3021 13.5625 12.4375C13.6979 12.5729 13.8047 12.7318 13.8828 12.9141C13.9609 13.0964 14 13.2917 14 13.5C14 13.7083 13.9609 13.9036 13.8828 14.0859C13.8047 14.2682 13.6979 14.4271 13.5625 14.5625C13.4271 14.6979 13.2682 14.8047 13.0859 14.8828C12.9036 14.9609 12.7083 15 12.5 15C12.2917 15 12.0964 14.9609 11.9141 14.8828C11.7318 14.8047 11.5729 14.6979 11.4375 14.5625C11.3021 14.4271 11.1953 14.2682 11.1172 14.0859C11.0391 13.9036 11 13.7083 11 13.5C11 13.3385 11.0286 13.1719 11.0859 13H6.91406C6.97135 13.1719 7 13.3385 7 13.5C7 13.7083 6.96094 13.9036 6.88281 14.0859C6.80469 14.2682 6.69792 14.4271 6.5625 14.5625C6.42708 14.6979 6.26823 14.8047 6.08594 14.8828C5.90365 14.9609 5.70833 15 5.5 15C5.29167 15 5.09635 14.9609 4.91406 14.8828C4.73177 14.8047 4.57292 14.6979 4.4375 14.5625C4.30208 14.4271 4.19531 14.2682 4.11719 14.0859C4.03906 13.9036 4 13.7083 4 13.5C4 13.2135 4.07552 12.9479 4.22656 12.7031C4.38281 12.4583 4.59115 12.2734 4.85156 12.1484L1.47656 2H0V1H2.19531L2.85938 3H16L13.6719 10H5.19531L5.85938 12H12.5ZM3.19531 4L4.85938 9H12.9453L14.6094 4H3.19531ZM6 13.5C6 13.3646 5.95052 13.2474 5.85156 13.1484C5.7526 13.0495 5.63542 13 5.5 13C5.36458 13 5.2474 13.0495 5.14844 13.1484C5.04948 13.2474 5 13.3646 5 13.5C5 13.6354 5.04948 13.7526 5.14844 13.8516C5.2474 13.9505 5.36458 14 5.5 14C5.63542 14 5.7526 13.9505 5.85156 13.8516C5.95052 13.7526 6 13.6354 6 13.5ZM12.5 14C12.6354 14 12.7526 13.9505 12.8516 13.8516C12.9505 13.7526 13 13.6354 13 13.5C13 13.3646 12.9505 13.2474 12.8516 13.1484C12.7526 13.0495 12.6354 13 12.5 13C12.3646 13 12.2474 13.0495 12.1484 13.1484C12.0495 13.2474 12 13.3646 12 13.5C12 13.6354 12.0495 13.7526 12.1484 13.8516C12.2474 13.9505 12.3646 14 12.5 14Z" fill="white"/>
</svg>
