<svg viewBox="0 0 24 24" fill="none" xmlns="http://www.w3.org/2000/svg">
<path fill-rule="evenodd" clip-rule="evenodd" d="M16.637 4.502C17.021 4.16 17.514 4 18 4C18.486 4 18.979 4.16 19.363 4.502C19.748 4.844 20 5.375 20 6C20 6.581 19.848 7.062 19.588 7.426C19.328 7.79 18.987 8.026 18.656 8.227C18.4187 8.37062 18.2169 8.54038 18.0182 8.70752C17.8987 8.80804 17.7803 8.90762 17.656 9H20V10H16V9.145L16.084 9.018C16.5955 8.24698 17.2807 7.8599 17.827 7.55123C17.9376 7.48879 18.0424 7.42956 18.139 7.371C18.425 7.197 18.636 7.036 18.773 6.844C18.91 6.652 19 6.419 19 6C19 5.625 18.877 5.406 18.699 5.248C18.521 5.09 18.264 5 18 5C17.736 5 17.479 5.09 17.301 5.248C17.123 5.406 17 5.625 17 6H16C16 5.375 16.252 4.844 16.637 4.502ZM5.29883 7.0032H6.478L9.50684 11.8504L12.5319 7.00922H13.7111L10.0964 12.7939L13.6384 18.4622L13.9844 18.9921H12.7903L9.50684 13.7375L6.2193 18.9986L5.01172 18.9988L5.37125 18.4687L8.91727 12.7939L5.29883 7.0032Z" fill="black"/>
</svg>
