<?xml version="1.0" encoding="utf-8"?>
<!-- Generator: Adobe Illustrator 25.1.0, SVG Export Plug-In . SVG Version: 6.00 Build 0)  -->
<svg version="1.1" id="Layer_1" xmlns="http://www.w3.org/2000/svg" xmlns:xlink="http://www.w3.org/1999/xlink" x="0px" y="0px"
	 viewBox="0 0 293.3 49.3" style="enable-background:new 0 0 293.3 49.3;" xml:space="preserve">
<style type="text/css">
	.st0{fill:#FFFFFF;}
</style>
<path fill="#ffffff" class="st0" d="M47,12.3v32c0,1.5-1.2,2.7-2.7,2.7H2.7C1.2,47,0,45.8,0,44.3v-0.9c0-0.6,0.3-1.5,0.5-1.8
	C1.1,40.4,2,39,3.2,37.5C10.4,28.6,24.2,16.3,47,12.3z M110.6,27.2c0,0.9,0,1.8-0.2,2.5H96.1c0.2,4.1,3.1,5.7,6.5,5.7
	c2.4,0,4.2-0.4,5.8-1l0.9,4.4c-2,0.9-4.8,1.4-7.7,1.4c-7.4,0-11.6-4.6-11.6-12c0-6.9,3.9-12.8,10.9-12.8
	C106.8,15.4,110.6,19.5,110.6,27.2z M104.7,25.3c0-2.5-0.9-5.5-4.1-5.5c-3,0-4.3,3.2-4.5,5.5H104.7z M125.3,27.4
	c-0.5,2.1-0.9,4-1.3,6.1h-0.1c-0.4-2.1-0.8-4-1.3-6.1l-3.1-11.6h-6.8l8,23.9h6.1l8.1-23.9h-6.6L125.3,27.4z M86.9,22.6
	c0,7.1-2.4,11.2-5,13.5c-3,2.7-7.6,4-13.3,4c-3,0-5.5-0.2-7.2-0.4V7.2c2.3-0.4,5.3-0.7,8.5-0.7c5.5,0,9.2,1.2,11.9,3.4
	C85.1,12.5,86.9,16.6,86.9,22.6z M80.3,22.6c0-7.5-3.6-11.1-9.5-11.1c-1.3,0-2.3,0.1-3,0.3v23.1c0.6,0.1,1.6,0.1,2.4,0.1
	C76.2,35,80.3,31.3,80.3,22.6z M44.3,0H2.7C1.2,0,0,1.2,0,2.7v24.9C8.2,19,22.9,9.5,45.2,6.9C45.8,6.9,47,6.6,47,5V2.7
	C47,1.2,45.8,0,44.3,0z M144.8,25.3h10.8v-5.2h-10.8v-8h11.4V6.8h-17.7v32.9h18.4v-5.3h-12.1V25.3z M246.2,27.2c0,0.9,0,1.8-0.2,2.5
	h-14.3c0.2,4.1,3.1,5.7,6.5,5.7c2.4,0,4.2-0.4,5.8-1l0.9,4.4c-2,0.9-4.8,1.4-7.7,1.4c-7.4,0-11.6-4.6-11.6-12
	c0-6.9,3.9-12.8,10.9-12.8C242.4,15.4,246.2,19.5,246.2,27.2z M240.3,25.3c0-2.5-0.9-5.5-4.1-5.5c-3,0-4.3,3.2-4.5,5.5H240.3z
	 M291,15.2l0.5,1.2h-1l-0.4-1.1c-0.2-0.4-0.4-0.6-0.6-0.6h-0.4v1.8h-0.9v-4.4h1.4c0.5,0,1,0.1,1.3,0.3c0.3,0.2,0.4,0.5,0.4,0.9
	c0,0.6-0.4,1-1.1,1.2v0C290.6,14.5,290.8,14.8,291,15.2z M290.3,13.9c0.1-0.1,0.2-0.3,0.2-0.5c0-0.4-0.3-0.6-0.8-0.6h-0.5V14h0.6
	C290,14,290.1,14,290.3,13.9z M278.3,25.3c-2.7-1.2-3.6-1.8-3.6-3.2c0-1.3,1-2.3,3-2.3c1.8,0,3.5,0.7,4.5,1.2l1.2-4.5
	c-1.4-0.7-3.5-1.3-5.9-1.3c-5.3,0-8.7,3.3-8.7,7.5c0,2.6,1.6,5.1,6.1,6.9c2.6,1.1,3.4,1.9,3.4,3.3c0,1.5-1.1,2.4-3.3,2.4
	c-2,0-4.3-0.9-5.6-1.6l-1.2,4.6c1.6,0.9,4.1,1.6,6.7,1.6c6,0,9.4-3,9.4-7.5C284.2,29.3,282.3,27,278.3,25.3z M293.3,14.3
	c0,1-0.3,1.8-1,2.5c-0.7,0.7-1.5,1-2.5,1c-1,0-1.9-0.3-2.5-1c-0.7-0.6-1-1.5-1-2.5c0-1,0.3-1.8,1-2.5c0.7-0.7,1.5-1,2.5-1
	c1,0,1.8,0.3,2.5,1C293,12.5,293.3,13.3,293.3,14.3z M292.7,14.3c0-0.8-0.3-1.6-0.9-2.1c-0.6-0.6-1.3-0.9-2.1-0.9
	c-0.9,0-1.6,0.3-2.1,0.9c-0.6,0.6-0.9,1.3-0.9,2.1c0,0.9,0.3,1.6,0.9,2.1c0.6,0.6,1.3,0.8,2.1,0.8c0.8,0,1.5-0.3,2.1-0.9
	C292.4,15.8,292.7,15.1,292.7,14.3z M180.8,15.9h-6.7l-2.1,4.3c-0.6,1.2-1.2,2.5-1.8,3.8h-0.1c-0.6-1.2-1.2-2.4-1.8-3.8l-2.3-4.3h-7
	l7.1,11.8l-7.2,12.1h6.8l2.2-4.6c0.6-1.2,1.2-2.5,1.8-3.8h0.1c0.6,1.3,1.2,2.5,1.8,3.8l2.4,4.6h7.1l-7.2-12.3L180.8,15.9z
	 M259.3,25.3c-2.7-1.2-3.6-1.8-3.6-3.2c0-1.3,1-2.3,3-2.3c1.8,0,3.5,0.7,4.5,1.2l1.2-4.5c-1.4-0.7-3.5-1.3-5.9-1.3
	c-5.3,0-8.7,3.3-8.7,7.5c0,2.6,1.6,5.1,6.1,6.9c2.6,1.1,3.4,1.9,3.4,3.3c0,1.5-1.1,2.4-3.3,2.4c-2,0-4.3-0.9-5.6-1.6l-1.2,4.6
	c1.6,0.9,4.1,1.6,6.7,1.6c6,0,9.4-3,9.4-7.5C265.2,29.3,263.4,27,259.3,25.3z M206,27.6c0,8.8-5,12.6-9.8,12.6
	c-2.6,0-4.6-1.2-5.6-2.8h-0.1v11.9h-6.3V23.7c0-3.1-0.1-5.6-0.2-7.8h5.5l0.3,3.3h0.1c1.5-2.4,4-3.8,7.1-3.8
	C202.1,15.4,206,20.2,206,27.6z M199.6,27.8c0-4.2-1.6-7.3-4.8-7.3c-2.4,0-4.4,2.3-4.4,5.2v4.5c0,3.5,2.1,5.1,4.2,5.1
	C197.9,35.2,199.6,32.1,199.6,27.8z M216.2,20H216l-0.3-4.2h-5.4c0.1,2.1,0.2,4.5,0.2,7.5v16.4h6.3V27.4c0-4.1,2.2-6,5-6
	c0.6,0,1.2,0,1.6,0.1v-6c-0.4-0.1-0.8-0.1-1.4-0.1C219.8,15.4,217.3,16.9,216.2,20z"/>
</svg>
