<?xml version="1.0" encoding="UTF-8" standalone="no"?>
<svg
   xmlns:osb="http://www.openswatchbook.org/uri/2009/osb"
   xmlns:dc="http://purl.org/dc/elements/1.1/"
   xmlns:cc="http://creativecommons.org/ns#"
   xmlns:rdf="http://www.w3.org/1999/02/22-rdf-syntax-ns#"
   xmlns:svg="http://www.w3.org/2000/svg"
   xmlns="http://www.w3.org/2000/svg"
   width="24"
   height="24"
   id="svg4168"
   version="1.1">
  <defs
     id="defs4170">
    <linearGradient osb:paint="solid" id="Foreground">
      <stop offset="0" style="stop-color:#000000;stop-opacity:1;" />
    </linearGradient>
  </defs>
  <metadata
     id="metadata4173">
    <rdf:RDF>
      <cc:Work
         rdf:about="">
        <dc:format>image/svg+xml</dc:format>
        <dc:type
           rdf:resource="http://purl.org/dc/dcmitype/StillImage" />
        <dc:title></dc:title>
      </cc:Work>
    </rdf:RDF>
  </metadata>
  <path
     style="fill:url(#Foreground);fill-opacity:1;stroke:none"
     d="m 2.05,9.76 0.46,0.2 2.61,1.14 c -0.1,0.5 -0.1,1 -0,1.4 l -3.13,1.2 1.44,3.7 3.13,-1.2 c 0.28,0.4 0.6,0.8 0.95,1.1 l -1.36,3 3.65,1.6 1.34,-3 c 0.4,0 1,0.1 1.4,0 l 1.3,3.2 3.7,-1.5 -1.3,-3.1 c 0.4,-0.3 0.7,-0.6 1,-1 l 3.1,1.4 1.6,-3.7 -3.1,-1.3 c 0.1,-0.4 0.1,-1 0.1,-1.4 L 22.1,10.3 20.7,6.55 17.5,7.77 C 17.2,7.42 16.8,7.04 16.5,6.78 l 1.4,-3.1 -3.7,-1.63 -1.3,3.11 c -0.5,-0.1 -1,-0.1 -1.4,-0.1 L 10.4,2 6.47,3.52 7.77,6.5 C 7.41,6.78 7.04,7.16 6.76,7.48 L 3.68,6.11 Z M 3.37,9.25 4.18,7.43 7,8.68 7.25,8.35 C 7.63,7.87 8.11,7.42 8.61,7.1 L 8.97,6.82 7.84,4.13 9.82,3.37 10.8,6.11 11.2,6.06 c 0.6,-0 1.3,-0.1 1.9,0.1 l 0.4,0.1 1.2,-2.83 1.9,0.81 -1.3,2.84 0.3,0.25 c 0.5,0.34 1,0.85 1.3,1.33 l 0.3,0.35 2.7,-1.11 0.7,1.98 -2.7,0.98 0,0.4 c 0.1,0.6 0.1,1.3 0,1.9 l -0.1,0.4 2.8,1.2 -0.8,1.9 -2.8,-1.3 -0.3,0.3 c -0.3,0.6 -0.8,1 -1.3,1.4 l -0.3,0.2 1.1,2.7 -2,0.7 -1,-2.7 -0.4,0 c -0.6,0.1 -1.3,0.1 -1.9,0 L 10.5,17.8 9.25,20.6 7.43,19.8 8.67,17 8.35,16.8 C 7.86,16.4 7.41,15.9 7.05,15.4 l -0.21,-0.3 -2.71,1.1 -0.76,-2 2.74,-1 -0.1,-0.4 c -0.1,-0.6 -0.1,-1.3 0.1,-1.9 l 0.1,-0.4 z"
     id="path4136" />
  <path
     style="fill:url(#Foreground);fill-opacity:1;stroke:none"
     d="m 12,8 c -2.22,0 -4,1.78 -4,4 0,2.2 1.78,4 4,4 2.2,0 4,-1.8 4,-4 0,-2.22 -1.8,-4 -4,-4 z m 0,0.89 c 1.7,0 3.1,1.41 3.1,3.11 0,1.7 -1.4,3.1 -3.1,3.1 -1.7,0 -3.11,-1.4 -3.11,-3.1 0,-1.7 1.41,-3.11 3.11,-3.11 z"
     id="path4137" />
  
</svg>
